<?xml version="1.0" encoding="utf-8"?><!DOCTYPE svg PUBLIC "-//W3C//DTD SVG 1.1//EN" "http://www.w3.org/Graphics/SVG/1.1/DTD/svg11.dtd"><svg xmlns="http://www.w3.org/2000/svg" xmlns:xlink="http://www.w3.org/1999/xlink"><symbol viewBox="0 0 48 48" id="src--check"><path d="M.998 23.767l15.997 15.942-1.41 1.416L-.414 25.183z"/><path d="M47 6.875l1.415 1.414L15.58 41.124l-1.415-1.414z"/></symbol><symbol viewBox="0 0 48 48" id="src--clock"><path d="M24 44.624C13.031 44.623 4.108 35.819 4.108 25 4.108 14.18 13.031 5.377 24 5.377c10.967 0 19.889 8.803 19.889 19.623S34.967 44.624 24 44.624zm0-37.247C14.134 7.377 6.108 15.283 6.108 25c0 9.717 8.026 17.623 17.892 17.624 9.864 0 17.889-7.906 17.889-17.624 0-9.717-8.025-17.623-17.889-17.623z"/><path d="M11.262 48a1 1 0 0 1-.941-1.337l2.123-5.924a1 1 0 1 1 1.883.674l-2.123 5.924a1.001 1.001 0 0 1-.942.663zM36.736 48a1 1 0 0 1-.941-.663l-2.123-5.924a.998.998 0 1 1 1.882-.674l2.123 5.924A.998.998 0 0 1 36.736 48z"/><g><path d="M2.818 14.541l-.664-.728A8.159 8.159 0 0 1 .011 7.842a8.188 8.188 0 0 1 2.773-5.729A8.44 8.44 0 0 1 8.378 0c2.375 0 4.646 1 6.232 2.744l.682.75L2.818 14.541zM8.378 2A6.438 6.438 0 0 0 4.11 3.611a6.197 6.197 0 0 0-2.101 4.337 6.15 6.15 0 0 0 1.016 3.739l9.363-8.292A6.46 6.46 0 0 0 8.378 2zM45.185 14.542L32.704 3.494l.683-.75A8.436 8.436 0 0 1 39.62 0c2.065 0 4.052.75 5.594 2.112a8.179 8.179 0 0 1 2.774 5.721 8.168 8.168 0 0 1-2.14 5.979l-.663.73zM35.609 3.395l9.367 8.292a6.166 6.166 0 0 0 1.015-3.746 6.193 6.193 0 0 0-2.103-4.33A6.434 6.434 0 0 0 39.62 2c-1.468 0-2.884.5-4.011 1.395z"/></g><path d="M34.613 26H23V10.939a1 1 0 0 1 2 0V24h9.613a1 1 0 1 1 0 2z"/></symbol><symbol viewBox="0 0 1220 394" id="src--logo"><title>logo</title><g fill="#FFF" fill-rule="evenodd"><path d="M83.234 265v51.016H33.762V265H0v129h33.762v-51.99h49.472V394H117V265zM136 265v25.997h42.268V394h33.658V290.997H254V265zM377.86 265l-20.223 65.87-7.457 27.166h-.394l-7.27-27.361L322.099 265H274v129h30.037v-59.22l-.98-39.677h.39L335.451 394h27.293l32.004-98.897h.394l-.988 39.678V394H424V265zM453 265v129h99v-25.993h-65.151V265zM623 265v129h104v-25.993h-70.06V341.62h53.678v-24.432H656.94v-26.192h67.491V265zM850.861 265l-20.222 65.87-7.46 27.166h-.39l-7.27-27.361L795.101 265H747v129h30.04v-59.22l-.983-39.677h.394L808.453 394h27.289l32.006-98.897h.39l-.983 39.678V394H897V265zM957.43 265L912 394h33.876l9.005-29.12h44.65l8.807 29.12H1043l-45.235-129H957.43zm14.293 45.931l5.289-20.128h.389l5.681 20.326 9.398 30.88h-30.548l9.791-31.078zM1058 394h34V265h-34zM1121 265v129h99v-25.993h-65.151V265zM696.607.577L585 81 475.272.751C459.974 22.638 451 49.271 451 78c0 29.432 9.418 56.663 25.405 78.846L568 95l17 12 18-12 92.524 61.944C711.554 134.744 721 107.475 721 78c0-28.805-9.022-55.503-24.393-77.423z"/></g></symbol><symbol viewBox="0 0 1560 157" id="src--logo-inline"><title>logo-inline</title><path d="M423.234 15v51.016h-49.472V15H340v129h33.762V92.01h49.472V144H457V15m19 0v25.997h42.268V144h33.658V40.997H594V15m123.86 0l-20.223 65.87-7.457 27.166h-.394l-7.27-27.36L662.1 15H614v129h30.037V84.78l-.98-39.677h.39L675.45 144h27.294l32.004-98.897h.394l-.988 39.678V144H764V15m29 0v129h99v-25.993h-65.15V15M963 15v129h104v-25.993h-70.06V91.62h53.678V67.19H996.94V40.996h67.49V15m126.43 0l-20.22 65.87-7.462 27.166h-.39l-7.27-27.36L1135.102 15H1087v129h30.04V84.78l-.983-39.677h.394L1148.454 144h27.29l32.005-98.897h.39l-.983 39.678V144H1237V15m60.43 0L1252 144h33.876l9.005-29.12h44.652l8.806 29.12H1383l-45.235-129h-40.335zm14.293 45.93l5.29-20.127h.388l5.682 20.326 9.398 30.88h-30.548l9.79-31.08zM1398 144h34V15h-34m63 0v129h99v-25.993h-65.15V15M245.607 0L134 80.423 24.272.173C8.974 22.06 0 48.694 0 77.424c0 29.43 9.418 56.663 25.405 78.846L117 94.422l17 12 18-12 92.524 61.944c16.03-22.2 25.476-49.47 25.476-78.944C270 48.618 260.978 21.92 245.607 0z" fill="#FFF" fill-rule="evenodd"/></symbol><symbol viewBox="0 0 48 48" id="src--responsive"><path d="M40 48H8c-4.411 0-8-3.589-8-8V8c0-4.411 3.589-8 8-8h32c4.411 0 8 3.589 8 8v32c0 4.411-3.589 8-8 8zM8 2C4.691 2 2 4.691 2 8v32c0 3.309 2.691 6 6 6h32c3.309 0 6-2.691 6-6V8c0-3.309-2.691-6-6-6H8z"/><path d="M7.113 5.568l8.832 8.833-1.414 1.414-8.833-8.832z"/><path d="M7.404 17.085h-2l.001-11.809h11.807v2H7.405z"/><g><path d="M14.531 32.184l1.414 1.415-8.834 8.833-1.414-1.414z"/><path d="M17.212 42.727H5.405l-.001-11.811h2l.001 9.811h9.807z"/></g><g><path d="M40.889 5.57l1.414 1.413-8.832 8.833-1.415-1.415z"/><path d="M42.596 17.085h-2V7.276h-9.808v-2h11.808z"/><g><path d="M33.47 32.187l8.833 8.836-1.414 1.414-8.833-8.836z"/><path d="M42.596 42.727H30.788v-2h9.808v-9.811h2z"/></g></g></symbol><symbol viewBox="0 0 1110 329" id="src--templates"><title>templates</title><defs><path id="fa" d="M0 0h177v300H0z"/><mask id="fr" x="0" y="0" width="177" height="300" fill="#fff"><use xlink:href="#fa"/></mask><rect id="fb" x="74" y="20" width="30" height="30" rx="36"/><mask id="fs" x="0" y="0" width="30" height="30" fill="#fff"><use xlink:href="#fb"/></mask><path id="fc" d="M13 60h153v140H13z"/><mask id="ft" x="0" y="0" width="153" height="140" fill="#fff"><use xlink:href="#fc"/></mask><path id="fv" d="M12 60h153v30H12z"/><filter x="-50%" y="-50%" width="200%" height="200%" filterUnits="objectBoundingBox" id="fu"><feOffset dy="1" in="SourceAlpha" result="shadowOffsetOuter1"/><feComposite in="shadowOffsetOuter1" in2="SourceAlpha" operator="out" result="shadowOffsetOuter1"/><feColorMatrix values="0 0 0 0 1 0 0 0 0 1 0 0 0 0 1 0 0 0 0.6 0" in="shadowOffsetOuter1"/></filter><path id="fd" d="M0 0h177v300H0z"/><mask id="fw" x="0" y="0" width="177" height="300" fill="#fff"><use xlink:href="#fd"/></mask><rect id="fe" x="74" y="20" width="30" height="30" rx="36"/><mask id="fx" x="0" y="0" width="30" height="30" fill="#fff"><use xlink:href="#fe"/></mask><path id="ff" d="M12 60h153v210H12z"/><mask id="fy" x="0" y="0" width="153" height="210" fill="#fff"><use xlink:href="#ff"/></mask><path id="fg" d="M29 75h120v50H29z"/><mask id="fz" x="0" y="0" width="120" height="50" fill="#fff"><use xlink:href="#fg"/></mask><path id="fh" d="M29 155h55v50H29z"/><mask id="fA" x="0" y="0" width="55" height="50" fill="#fff"><use xlink:href="#fh"/></mask><path id="fi" d="M94 155h55v50H94z"/><mask id="fB" x="0" y="0" width="55" height="50" fill="#fff"><use xlink:href="#fi"/></mask><path id="fj" d="M0 0h177v300H0z"/><mask id="fC" x="0" y="0" width="177" height="300" fill="#fff"><use xlink:href="#fj"/></mask><rect id="fk" x="74" y="20" width="30" height="30" rx="36"/><mask id="fD" x="0" y="0" width="30" height="30" fill="#fff"><use xlink:href="#fk"/></mask><path id="fl" d="M12 60h153v190H12z"/><mask id="fE" x="0" y="0" width="153" height="190" fill="#fff"><use xlink:href="#fl"/></mask><path id="fG" d="M12 60h153v50H12z"/><filter x="-50%" y="-50%" width="200%" height="200%" filterUnits="objectBoundingBox" id="fF"><feOffset dy="1" in="SourceAlpha" result="shadowOffsetOuter1"/><feComposite in="shadowOffsetOuter1" in2="SourceAlpha" operator="out" result="shadowOffsetOuter1"/><feColorMatrix values="0 0 0 0 1 0 0 0 0 1 0 0 0 0 1 0 0 0 0.6 0" in="shadowOffsetOuter1"/></filter><path id="fm" d="M0 0h177v300H0z"/><mask id="fH" x="0" y="0" width="177" height="300" fill="#fff"><use xlink:href="#fm"/></mask><rect id="fn" x="73" y="20" width="30" height="30" rx="36"/><mask id="fI" x="0" y="0" width="30" height="30" fill="#fff"><use xlink:href="#fn"/></mask><path id="fo" d="M12 60h153v170H12z"/><mask id="fJ" x="0" y="0" width="153" height="170" fill="#fff"><use xlink:href="#fo"/></mask><path id="fp" d="M0 0h177v300H0z"/><mask id="fK" x="0" y="0" width="177" height="300" fill="#fff"><use xlink:href="#fp"/></mask><rect id="fq" x="74" y="20" width="30" height="30" rx="36"/><mask id="fL" x="0" y="0" width="30" height="30" fill="#fff"><use xlink:href="#fq"/></mask></defs><g fill="none" fill-rule="evenodd"><use stroke-opacity=".6" stroke="#FFF" mask="url(#fr)" stroke-width="2" fill-opacity=".1" fill="#FFF" xlink:href="#fa"/><use stroke-opacity=".6" stroke="#FFF" mask="url(#fs)" stroke-width="2" fill-opacity=".1" fill="#FFF" xlink:href="#fb"/><use stroke-opacity=".6" stroke="#FFF" mask="url(#ft)" stroke-width="2" fill-opacity=".1" fill="#FFF" xlink:href="#fc"/><rect fill-opacity=".6" fill="#FFF" x="59" y="165" width="60" height="20" rx="3"/><use fill="#000" filter="url(#fu)" xlink:href="#fv"/><use fill-opacity=".1" fill="#FFF" xlink:href="#fv"/><path fill-opacity=".1" fill="#FFF" d="M29 105h120v10H29zM29 125h120v10H29zM29 145h120v10H29zM29 210h120v10H29zM59 230h60v10H59z"/><text font-family="HelveticaNeue, Helvetica Neue" font-size="16" fill-opacity=".6" fill="#FFF"><tspan x="47.764" y="325">Notification</tspan></text><g transform="translate(233)" fill="#FFF"><use stroke-opacity=".6" stroke="#FFF" mask="url(#fw)" stroke-width="2" fill-opacity=".1" xlink:href="#fd"/><text font-family="HelveticaNeue, Helvetica Neue" font-size="16" fill-opacity=".6"><tspan x="50.292" y="325">Newsletter</tspan></text><use stroke-opacity=".6" stroke="#FFF" mask="url(#fx)" stroke-width="2" fill-opacity=".1" xlink:href="#fe"/><use stroke-opacity=".6" stroke="#FFF" mask="url(#fy)" stroke-width="2" fill-opacity=".1" xlink:href="#ff"/><rect fill-opacity=".6" x="59" y="236" width="60" height="20" rx="3"/><use stroke-opacity=".6" stroke="#FFF" mask="url(#fz)" stroke-width="2" fill-opacity=".1" xlink:href="#fg"/><path fill-opacity=".1" d="M29 135h120v10H29z"/><use stroke-opacity=".6" stroke="#FFF" mask="url(#fA)" stroke-width="2" fill-opacity=".1" xlink:href="#fh"/><path fill-opacity=".1" d="M29 215h55v10H29z"/><use stroke-opacity=".6" stroke="#FFF" mask="url(#fB)" stroke-width="2" fill-opacity=".1" xlink:href="#fi"/><path fill-opacity=".1" d="M94 215h55v10H94z"/></g><g transform="translate(467)"><use stroke-opacity=".6" stroke="#FFF" mask="url(#fC)" stroke-width="2" fill-opacity=".1" fill="#FFF" xlink:href="#fj"/><text font-family="HelveticaNeue, Helvetica Neue" font-size="16" fill-opacity=".6" fill="#FFF"><tspan x="56.468" y="325">Welcome</tspan></text><use stroke-opacity=".6" stroke="#FFF" mask="url(#fD)" stroke-width="2" fill-opacity=".1" fill="#FFF" xlink:href="#fk"/><rect fill-opacity=".6" fill="#FFF" x="81" y="260" width="15" height="15" rx="36"/><rect fill-opacity=".6" fill="#FFF" x="61" y="260" width="15" height="15" rx="36"/><rect fill-opacity=".6" fill="#FFF" x="41" y="260" width="15" height="15" rx="36"/><rect fill-opacity=".6" fill="#FFF" x="101" y="260" width="15" height="15" rx="36"/><rect fill-opacity=".6" fill="#FFF" x="121" y="260" width="15" height="15" rx="36"/><use stroke-opacity=".6" stroke="#FFF" mask="url(#fE)" stroke-width="2" fill-opacity=".1" fill="#FFF" xlink:href="#fl"/><use fill="#000" filter="url(#fF)" xlink:href="#fG"/><use fill-opacity=".1" fill="#FFF" xlink:href="#fG"/><rect fill-opacity=".6" fill="#FFF" x="29" y="165" width="45" height="10" rx="2"/><path fill-opacity=".1" fill="#FFF" d="M29 125h60v10H29zM29 145h120v10H29z"/><rect fill-opacity=".6" fill="#FFF" x="29" y="225" width="45" height="10" rx="2"/><path fill-opacity=".1" fill="#FFF" d="M29 185h60v10H29zM29 205h120v10H29z"/></g><g transform="translate(701)"><use stroke-opacity=".6" stroke="#FFF" mask="url(#fH)" stroke-width="2" fill-opacity=".1" fill="#FFF" xlink:href="#fm"/><text font-family="HelveticaNeue, Helvetica Neue" font-size="16" fill-opacity=".6" fill="#FFF"><tspan x="61.092" y="325">Receipt</tspan></text><use stroke-opacity=".6" stroke="#FFF" mask="url(#fI)" stroke-width="2" fill-opacity=".1" fill="#FFF" xlink:href="#fn"/><use stroke-opacity=".6" stroke="#FFF" mask="url(#fJ)" stroke-width="2" fill-opacity=".1" fill="#FFF" xlink:href="#fo"/><path fill-opacity=".1" fill="#FFF" d="M58 75h60v10H58zM28 95h120v10H28z"/><path d="M28 126h120M28 136h120M28 146h120M28 156h120M117.463 166H148M117.463 178H148" stroke="#FFF" stroke-linecap="square" opacity=".6"/><rect fill-opacity=".6" fill="#FFF" x="58" y="195" width="60" height="20" rx="3"/><rect fill-opacity=".6" fill="#FFF" x="34" y="260" width="30" height="10" rx="2"/><rect fill-opacity=".6" fill="#FFF" x="74" y="260" width="30" height="10" rx="2"/><rect fill-opacity=".6" fill="#FFF" x="114" y="260" width="30" height="10" rx="2"/><path fill-opacity=".1" fill="#FFF" d="M28 240h120v10H28z"/></g><g transform="translate(933)" fill="#FFF"><use stroke-opacity=".6" stroke="#FFF" mask="url(#fK)" stroke-width="2" fill-opacity=".1" xlink:href="#fp"/><text font-family="HelveticaNeue, Helvetica Neue" font-size="16" fill-opacity=".6"><tspan x="71.02" y="325">Plain</tspan></text><use stroke-opacity=".6" stroke="#FFF" mask="url(#fL)" stroke-width="2" fill-opacity=".1" xlink:href="#fq"/><path fill-opacity=".1" d="M16 75h60v10H16zM16 95h120v10H16zM16 115h120v10H16zM16 135h120v10H16z"/><rect fill-opacity=".6" x="16" y="155" width="60" height="20" rx="3"/><path fill-opacity=".1" d="M16 185h80v10H16zM16 205h80v10H16z"/></g></g></symbol><symbol viewBox="0 0 48 48" id="src--unhappy"><path d="M24 47.998C10.767 47.998.001 37.232.001 23.999.001 10.766 10.767 0 24 0c13.233 0 23.999 10.766 23.999 23.999 0 13.233-10.766 23.999-23.999 23.999zM24 2C11.87 2 2.001 11.869 2.001 23.999c0 12.13 9.869 21.999 21.999 21.999 12.13 0 21.999-9.869 21.999-21.999C45.999 11.869 36.13 2 24 2z"/><path d="M15.828 25.343c-2.559 0-4.563-2.938-4.563-6.69s2.004-6.69 4.563-6.69 4.563 2.938 4.563 6.69-2.004 6.69-4.563 6.69zm0-11.38c-1.212 0-2.563 1.926-2.563 4.69s1.351 4.69 2.563 4.69 2.563-1.926 2.563-4.69-1.35-4.69-2.563-4.69zM32.169 25.343c-2.558 0-4.562-2.938-4.562-6.69 0-3.752 2.004-6.691 4.562-6.691 2.559 0 4.563 2.939 4.563 6.691 0 3.751-2.004 6.69-4.563 6.69zm0-11.381c-1.212 0-2.562 1.926-2.562 4.691 0 2.764 1.35 4.69 2.562 4.69 1.213 0 2.563-1.926 2.563-4.69 0-2.765-1.35-4.691-2.563-4.691zM14.057 38.208l-1.673-1.096a13.91 13.91 0 0 1 11.666-6.306c4.638 0 8.959 2.297 11.558 6.144l-1.656 1.119a11.94 11.94 0 0 0-9.901-5.263 11.916 11.916 0 0 0-9.994 5.402zM18.763 12.714c-1.5-2.876-4.412-3.69-4.441-3.698l.509-1.935c.153.04 3.784 1.023 5.706 4.708l-1.774.925zM28.363 12.714l-1.773-.924c1.921-3.684 5.552-4.667 5.706-4.708l.508 1.935c-.029.007-2.941.821-4.441 3.697z"/></symbol><symbol viewBox="0 0 0 0" id="symbol--svg--sprite.symbol"/></svg>