<?xml version="1.0" encoding="utf-8"?><!DOCTYPE svg PUBLIC "-//W3C//DTD SVG 1.1//EN" "http://www.w3.org/Graphics/SVG/1.1/DTD/svg11.dtd"><svg xmlns="http://www.w3.org/2000/svg" xmlns:xlink="http://www.w3.org/1999/xlink"><symbol viewBox="0 0 48 48" id="src--check"><path d="M.998 23.767L16.995 39.71l-1.41 1.415L-.414 25.183z"/><path d="M47 6.875l1.415 1.414L15.58 41.123l-1.415-1.414z"/></symbol><symbol viewBox="0 0 48 48" id="src--clock"><path d="M24 44.624C13.03 44.624 4.108 35.82 4.108 25 4.108 14.18 13.03 5.377 24 5.377c10.967 0 19.89 8.803 19.89 19.623S34.966 44.624 24 44.624zm0-37.247C14.134 7.377 6.108 15.283 6.108 25c0 9.717 8.026 17.623 17.892 17.624 9.864 0 17.89-7.906 17.89-17.624 0-9.717-8.026-17.623-17.89-17.623z"/><path d="M11.262 48a1 1 0 0 1-.94-1.337l2.122-5.924a1 1 0 1 1 1.883.674l-2.123 5.923a1 1 0 0 1-.942.663zM36.736 48a1 1 0 0 1-.94-.663l-2.124-5.924a.998.998 0 1 1 1.882-.674l2.123 5.923a.998.998 0 0 1-.94 1.337z"/><g><path d="M2.818 14.54l-.664-.727A8.16 8.16 0 0 1 .01 7.843a8.188 8.188 0 0 1 2.774-5.73A8.44 8.44 0 0 1 8.378 0c2.375 0 4.646 1 6.232 2.744l.682.75L2.818 14.54zM8.378 2A6.438 6.438 0 0 0 4.11 3.61a6.197 6.197 0 0 0-2.1 4.338 6.15 6.15 0 0 0 1.015 3.74l9.363-8.293A6.46 6.46 0 0 0 8.378 2zM45.185 14.542L32.705 3.494l.682-.75A8.436 8.436 0 0 1 39.62 0c2.065 0 4.052.75 5.594 2.112a8.18 8.18 0 0 1 2.774 5.72 8.168 8.168 0 0 1-2.14 5.98l-.663.73zM35.61 3.395l9.366 8.292A6.166 6.166 0 0 0 45.99 7.94a6.193 6.193 0 0 0-2.102-4.33A6.434 6.434 0 0 0 39.62 2a6.46 6.46 0 0 0-4.01 1.395z"/></g><path d="M34.613 26H23V10.94a1 1 0 0 1 2 0V24h9.613a1 1 0 0 1 0 2z"/></symbol><symbol viewBox="0 0 1220 394" id="src--logo"><title>logo</title><g fill="#FFF" fill-rule="evenodd"><path d="M83.234 265v51.016H33.762V265H0v129h33.762v-51.99h49.472V394H117V265zM136 265v25.997h42.268V394h33.658V290.997H254V265zM377.86 265l-20.223 65.87-7.457 27.166h-.394l-7.27-27.36L322.1 265H274v129h30.037v-59.22l-.98-39.677h.39L335.45 394h27.294l32.004-98.897h.394l-.988 39.678V394H424V265zM453 265v129h99v-25.993h-65.15V265zM623 265v129h104v-25.993h-70.06V341.62h53.678v-24.43H656.94v-26.193h67.49V265zM850.86 265l-20.22 65.87-7.462 27.166h-.39l-7.27-27.36L795.102 265H747v129h30.04v-59.22l-.983-39.677h.394L808.454 394h27.29l32.005-98.897h.39l-.983 39.678V394H897V265zM957.43 265L912 394h33.876l9.005-29.12h44.652l8.806 29.12H1043l-45.235-129H957.43zm14.293 45.93l5.29-20.127h.388l5.682 20.326 9.398 30.88h-30.548l9.79-31.08zM1058 394h34V265h-34zM1121 265v129h99v-25.993h-65.15V265zM696.607.577L585 81 475.272.75C459.974 22.64 451 49.27 451 78c0 29.432 9.418 56.663 25.405 78.846L568 95l17 12 18-12 92.524 61.944C711.554 134.744 721 107.474 721 78c0-28.805-9.022-55.503-24.393-77.423z"/></g></symbol><symbol viewBox="0 0 48 48" id="src--responsive"><path d="M40 48H8c-4.41 0-8-3.59-8-8V8c0-4.41 3.59-8 8-8h32c4.41 0 8 3.59 8 8v32c0 4.41-3.59 8-8 8zM8 2C4.69 2 2 4.69 2 8v32c0 3.31 2.69 6 6 6h32c3.31 0 6-2.69 6-6V8c0-3.31-2.69-6-6-6H8z"/><path d="M7.113 5.568l8.832 8.833-1.414 1.415L5.7 6.983z"/><path d="M7.404 17.085h-2V5.275h11.808v2H7.405z"/><g><path d="M14.53 32.184l1.415 1.415L7.11 42.43l-1.413-1.414z"/><path d="M17.212 42.727H5.405v-11.81h2v9.81h9.807z"/></g><g><path d="M40.89 5.57l1.413 1.413-8.832 8.833-1.414-1.415z"/><path d="M42.596 17.085h-2v-9.81h-9.808v-2h11.808z"/><g><path d="M33.47 32.187l8.833 8.836-1.414 1.414-8.834-8.836z"/><path d="M42.596 42.727H30.788v-2h9.808v-9.81h2z"/></g></g></symbol><symbol viewBox="0 0 1110 329" id="src--templates"><title>templates</title><defs><path id="ea" d="M0 0h177v300H0z"/><mask id="er" x="0" y="0" width="177" height="300" fill="#fff"><use xlink:href="#ea"/></mask><rect id="eb" x="74" y="20" width="30" height="30" rx="36"/><mask id="es" x="0" y="0" width="30" height="30" fill="#fff"><use xlink:href="#eb"/></mask><path id="ec" d="M13 60h153v140H13z"/><mask id="et" x="0" y="0" width="153" height="140" fill="#fff"><use xlink:href="#ec"/></mask><path id="ev" d="M12 60h153v30H12z"/><filter x="-50%" y="-50%" width="200%" height="200%" filterUnits="objectBoundingBox" id="eu"><feOffset dy="1" in="SourceAlpha" result="shadowOffsetOuter1"/><feComposite in="shadowOffsetOuter1" in2="SourceAlpha" operator="out" result="shadowOffsetOuter1"/><feColorMatrix values="0 0 0 0 1 0 0 0 0 1 0 0 0 0 1 0 0 0 0.6 0" in="shadowOffsetOuter1"/></filter><path id="ed" d="M0 0h177v300H0z"/><mask id="ew" x="0" y="0" width="177" height="300" fill="#fff"><use xlink:href="#ed"/></mask><rect id="ee" x="74" y="20" width="30" height="30" rx="36"/><mask id="ex" x="0" y="0" width="30" height="30" fill="#fff"><use xlink:href="#ee"/></mask><path id="ef" d="M12 60h153v210H12z"/><mask id="ey" x="0" y="0" width="153" height="210" fill="#fff"><use xlink:href="#ef"/></mask><path id="eg" d="M29 75h120v50H29z"/><mask id="ez" x="0" y="0" width="120" height="50" fill="#fff"><use xlink:href="#eg"/></mask><path id="eh" d="M29 155h55v50H29z"/><mask id="eA" x="0" y="0" width="55" height="50" fill="#fff"><use xlink:href="#eh"/></mask><path id="ei" d="M94 155h55v50H94z"/><mask id="eB" x="0" y="0" width="55" height="50" fill="#fff"><use xlink:href="#ei"/></mask><path id="ej" d="M0 0h177v300H0z"/><mask id="eC" x="0" y="0" width="177" height="300" fill="#fff"><use xlink:href="#ej"/></mask><rect id="ek" x="74" y="20" width="30" height="30" rx="36"/><mask id="eD" x="0" y="0" width="30" height="30" fill="#fff"><use xlink:href="#ek"/></mask><path id="el" d="M12 60h153v190H12z"/><mask id="eE" x="0" y="0" width="153" height="190" fill="#fff"><use xlink:href="#el"/></mask><path id="eG" d="M12 60h153v50H12z"/><filter x="-50%" y="-50%" width="200%" height="200%" filterUnits="objectBoundingBox" id="eF"><feOffset dy="1" in="SourceAlpha" result="shadowOffsetOuter1"/><feComposite in="shadowOffsetOuter1" in2="SourceAlpha" operator="out" result="shadowOffsetOuter1"/><feColorMatrix values="0 0 0 0 1 0 0 0 0 1 0 0 0 0 1 0 0 0 0.6 0" in="shadowOffsetOuter1"/></filter><path id="em" d="M0 0h177v300H0z"/><mask id="eH" x="0" y="0" width="177" height="300" fill="#fff"><use xlink:href="#em"/></mask><rect id="en" x="73" y="20" width="30" height="30" rx="36"/><mask id="eI" x="0" y="0" width="30" height="30" fill="#fff"><use xlink:href="#en"/></mask><path id="eo" d="M12 60h153v170H12z"/><mask id="eJ" x="0" y="0" width="153" height="170" fill="#fff"><use xlink:href="#eo"/></mask><path id="ep" d="M0 0h177v300H0z"/><mask id="eK" x="0" y="0" width="177" height="300" fill="#fff"><use xlink:href="#ep"/></mask><rect id="eq" x="74" y="20" width="30" height="30" rx="36"/><mask id="eL" x="0" y="0" width="30" height="30" fill="#fff"><use xlink:href="#eq"/></mask></defs><g fill="none" fill-rule="evenodd"><use stroke-opacity=".6" stroke="#FFF" mask="url(#er)" stroke-width="2" fill-opacity=".1" fill="#FFF" xlink:href="#ea"/><use stroke-opacity=".6" stroke="#FFF" mask="url(#es)" stroke-width="2" fill-opacity=".1" fill="#FFF" xlink:href="#eb"/><use stroke-opacity=".6" stroke="#FFF" mask="url(#et)" stroke-width="2" fill-opacity=".1" fill="#FFF" xlink:href="#ec"/><rect fill-opacity=".6" fill="#FFF" x="59" y="165" width="60" height="20" rx="3"/><use fill="#000" filter="url(#eu)" xlink:href="#ev"/><use fill-opacity=".1" fill="#FFF" xlink:href="#ev"/><path fill-opacity=".1" fill="#FFF" d="M29 105h120v10H29zM29 125h120v10H29zM29 145h120v10H29zM29 210h120v10H29zM59 230h60v10H59z"/><text font-family="HelveticaNeue, Helvetica Neue" font-size="16" fill-opacity=".6" fill="#FFF"><tspan x="47.764" y="325">Notification</tspan></text><g transform="translate(233)" fill="#FFF"><use stroke-opacity=".6" stroke="#FFF" mask="url(#ew)" stroke-width="2" fill-opacity=".1" xlink:href="#ed"/><text font-family="HelveticaNeue, Helvetica Neue" font-size="16" fill-opacity=".6"><tspan x="50.292" y="325">Newsletter</tspan></text><use stroke-opacity=".6" stroke="#FFF" mask="url(#ex)" stroke-width="2" fill-opacity=".1" xlink:href="#ee"/><use stroke-opacity=".6" stroke="#FFF" mask="url(#ey)" stroke-width="2" fill-opacity=".1" xlink:href="#ef"/><rect fill-opacity=".6" x="59" y="236" width="60" height="20" rx="3"/><use stroke-opacity=".6" stroke="#FFF" mask="url(#ez)" stroke-width="2" fill-opacity=".1" xlink:href="#eg"/><path fill-opacity=".1" d="M29 135h120v10H29z"/><use stroke-opacity=".6" stroke="#FFF" mask="url(#eA)" stroke-width="2" fill-opacity=".1" xlink:href="#eh"/><path fill-opacity=".1" d="M29 215h55v10H29z"/><use stroke-opacity=".6" stroke="#FFF" mask="url(#eB)" stroke-width="2" fill-opacity=".1" xlink:href="#ei"/><path fill-opacity=".1" d="M94 215h55v10H94z"/></g><g transform="translate(467)"><use stroke-opacity=".6" stroke="#FFF" mask="url(#eC)" stroke-width="2" fill-opacity=".1" fill="#FFF" xlink:href="#ej"/><text font-family="HelveticaNeue, Helvetica Neue" font-size="16" fill-opacity=".6" fill="#FFF"><tspan x="56.468" y="325">Welcome</tspan></text><use stroke-opacity=".6" stroke="#FFF" mask="url(#eD)" stroke-width="2" fill-opacity=".1" fill="#FFF" xlink:href="#ek"/><rect fill-opacity=".6" fill="#FFF" x="81" y="260" width="15" height="15" rx="36"/><rect fill-opacity=".6" fill="#FFF" x="61" y="260" width="15" height="15" rx="36"/><rect fill-opacity=".6" fill="#FFF" x="41" y="260" width="15" height="15" rx="36"/><rect fill-opacity=".6" fill="#FFF" x="101" y="260" width="15" height="15" rx="36"/><rect fill-opacity=".6" fill="#FFF" x="121" y="260" width="15" height="15" rx="36"/><use stroke-opacity=".6" stroke="#FFF" mask="url(#eE)" stroke-width="2" fill-opacity=".1" fill="#FFF" xlink:href="#el"/><use fill="#000" filter="url(#eF)" xlink:href="#eG"/><use fill-opacity=".1" fill="#FFF" xlink:href="#eG"/><rect fill-opacity=".6" fill="#FFF" x="29" y="165" width="45" height="10" rx="2"/><path fill-opacity=".1" fill="#FFF" d="M29 125h60v10H29zM29 145h120v10H29z"/><rect fill-opacity=".6" fill="#FFF" x="29" y="225" width="45" height="10" rx="2"/><path fill-opacity=".1" fill="#FFF" d="M29 185h60v10H29zM29 205h120v10H29z"/></g><g transform="translate(701)"><use stroke-opacity=".6" stroke="#FFF" mask="url(#eH)" stroke-width="2" fill-opacity=".1" fill="#FFF" xlink:href="#em"/><text font-family="HelveticaNeue, Helvetica Neue" font-size="16" fill-opacity=".6" fill="#FFF"><tspan x="61.092" y="325">Receipt</tspan></text><use stroke-opacity=".6" stroke="#FFF" mask="url(#eI)" stroke-width="2" fill-opacity=".1" fill="#FFF" xlink:href="#en"/><use stroke-opacity=".6" stroke="#FFF" mask="url(#eJ)" stroke-width="2" fill-opacity=".1" fill="#FFF" xlink:href="#eo"/><path fill-opacity=".1" fill="#FFF" d="M58 75h60v10H58zM28 95h120v10H28z"/><path d="M28 126h120M28 136h120M28 146h120M28 156h120M117.463 166H148M117.463 178H148" stroke="#FFF" stroke-linecap="square" opacity=".6"/><rect fill-opacity=".6" fill="#FFF" x="58" y="195" width="60" height="20" rx="3"/><rect fill-opacity=".6" fill="#FFF" x="34" y="260" width="30" height="10" rx="2"/><rect fill-opacity=".6" fill="#FFF" x="74" y="260" width="30" height="10" rx="2"/><rect fill-opacity=".6" fill="#FFF" x="114" y="260" width="30" height="10" rx="2"/><path fill-opacity=".1" fill="#FFF" d="M28 240h120v10H28z"/></g><g transform="translate(933)" fill="#FFF"><use stroke-opacity=".6" stroke="#FFF" mask="url(#eK)" stroke-width="2" fill-opacity=".1" xlink:href="#ep"/><text font-family="HelveticaNeue, Helvetica Neue" font-size="16" fill-opacity=".6"><tspan x="71.02" y="325">Plain</tspan></text><use stroke-opacity=".6" stroke="#FFF" mask="url(#eL)" stroke-width="2" fill-opacity=".1" xlink:href="#eq"/><path fill-opacity=".1" d="M16 75h60v10H16zM16 95h120v10H16zM16 115h120v10H16zM16 135h120v10H16z"/><rect fill-opacity=".6" x="16" y="155" width="60" height="20" rx="3"/><path fill-opacity=".1" d="M16 185h80v10H16zM16 205h80v10H16z"/></g></g></symbol><symbol viewBox="0 0 48 48" id="src--unhappy"><path d="M24 47.998c-13.233 0-24-10.766-24-24C0 10.767 10.768 0 24 0s24 10.766 24 24c0 13.232-10.767 23.998-24 23.998zM24 2C11.87 2 2 11.87 2 24s9.87 21.998 22 21.998 22-9.87 22-22S36.13 2 24 2z"/><path d="M15.828 25.343c-2.56 0-4.563-2.938-4.563-6.69s2.004-6.69 4.563-6.69 4.563 2.938 4.563 6.69-2.003 6.69-4.562 6.69zm0-11.38c-1.212 0-2.563 1.926-2.563 4.69s1.35 4.69 2.563 4.69 2.563-1.926 2.563-4.69-1.35-4.69-2.562-4.69zM32.17 25.343c-2.56 0-4.563-2.938-4.563-6.69 0-3.752 2.004-6.69 4.562-6.69 2.558 0 4.562 2.938 4.562 6.69 0 3.75-2.004 6.69-4.563 6.69zm0-11.38c-1.213 0-2.563 1.925-2.563 4.69 0 2.764 1.35 4.69 2.562 4.69 1.212 0 2.562-1.926 2.562-4.69 0-2.765-1.35-4.69-2.563-4.69zM14.057 38.208l-1.673-1.096a13.91 13.91 0 0 1 11.666-6.306c4.638 0 8.96 2.297 11.558 6.144l-1.656 1.12a11.94 11.94 0 0 0-9.9-5.264c-4.043 0-7.78 2.02-9.995 5.402zM18.763 12.714c-1.5-2.876-4.412-3.69-4.44-3.698l.508-1.935c.154.04 3.785 1.024 5.707 4.71l-1.774.924zM28.363 12.714l-1.773-.924c1.92-3.684 5.552-4.667 5.706-4.708l.508 1.935c-.03.007-2.94.82-4.44 3.697z"/></symbol><symbol viewBox="0 0 NaN NaN" id="symbol--svg--sprite.symbol"/></svg>