<?xml version="1.0" encoding="UTF-8" standalone="no"?>
<svg width="1220px" height="394px" viewBox="0 0 1220 394" version="1.1" xmlns="http://www.w3.org/2000/svg" xmlns:xlink="http://www.w3.org/1999/xlink">
    <!-- Generator: Sketch 3.7.2 (28276) - http://www.bohemiancoding.com/sketch -->
    <title>logo</title>
    <desc>Created with Sketch.</desc>
    <defs></defs>
    <g id="Welcome-v2" stroke="none" stroke-width="1" fill="none" fill-rule="evenodd">
        <g id="logo" transform="translate(-180.000000, -283.000000)" fill="#FFFFFF">
            <g transform="translate(180.000000, 283.000000)">
                <polygon id="h" points="83.2342315 265 83.2342315 316.015852 33.7617881 316.015852 33.7617881 265 0 265 0 394 33.7617881 394 33.7617881 342.009247 83.2342315 342.009247 83.2342315 394 117 394 117 265"></polygon>
                <polygon id="t" points="136 265 136 290.997358 178.268124 290.997358 178.268124 394 211.926295 394 211.926295 290.997358 254 290.997358 254 265"></polygon>
                <polygon id="m" points="377.86024 265 357.636774 330.869221 350.180366 358.035667 349.786247 358.035667 342.516946 330.675033 322.09841 265 274 265 274 394 304.036625 394 304.036625 334.780713 303.0573 295.103038 303.447438 295.103038 335.450675 394 362.744393 394 394.747631 295.103038 395.14175 295.103038 394.154463 334.780713 394.154463 394 424 394 424 265"></polygon>
                <polygon id="l" points="453 265 453 394 552 394 552 368.006605 486.848678 368.006605 486.848678 265"></polygon>
                <polygon id="e" points="623 265 623 394 727 394 727 368.006605 656.939748 368.006605 656.939748 341.620872 710.618329 341.620872 710.618329 317.188904 656.939748 317.188904 656.939748 290.997358 724.431111 290.997358 724.431111 265"></polygon>
                <polygon id="m" points="850.861465 265 830.638535 330.869221 823.178344 358.035667 822.788217 358.035667 815.519108 330.675033 795.101115 265 747 265 747 394 777.039809 394 777.039809 334.780713 776.056529 295.103038 776.450637 295.103038 808.453025 394 835.742038 394 867.748408 295.103038 868.138535 295.103038 867.155255 334.780713 867.155255 394 897 394 897 265"></polygon>
                <path d="M957.429533,265 L912,394 L945.875614,394 L954.880524,364.879789 L999.531854,364.879789 L1008.33824,394 L1043,394 L997.765018,265 L957.429533,265 Z M971.723041,310.931308 L977.011638,290.80317 L977.40074,290.80317 L983.082409,311.129458 L992.48039,342.009247 L961.931988,342.009247 L971.723041,310.931308 Z" id="a"></path>
                <polygon id="i" points="1058 394 1092 394 1092 265 1058 265"></polygon>
                <polygon id="l" points="1121 265 1121 394 1220 394 1220 368.006605 1154.84868 368.006605 1154.84868 265"></polygon>
                <path d="M696.606804,0.577449921 L585,81 L475.27172,0.750959346 C459.973991,22.6378162 451,49.2709142 451,78 C451,107.431581 460.418228,134.663416 476.405223,156.846046 L568,95 L585,107 L603,95 L695.524062,156.944075 C711.553995,134.743667 721,107.47495 721,78 C721,49.1949534 711.978491,22.4969931 696.606804,0.577449921 Z" id="Combined-Shape"></path>
            </g>
        </g>
    </g>
</svg>