<?xml version="1.0" encoding="utf-8"?>
<!-- Generator: Adobe Illustrator 16.0.0, SVG Export Plug-In . SVG Version: 6.00 Build 0)  -->
<!DOCTYPE svg PUBLIC "-//W3C//DTD SVG 1.1//EN" "http://www.w3.org/Graphics/SVG/1.1/DTD/svg11.dtd">
<svg version="1.1" id="Layer_1" xmlns="http://www.w3.org/2000/svg" xmlns:xlink="http://www.w3.org/1999/xlink" x="0px" y="0px"
	 width="48px" height="48px" viewBox="0 0 48 48" enable-background="new 0 0 48 48" xml:space="preserve">
<g>
	<path d="M24,47.998c-13.233,0-23.999-10.766-23.999-23.999C0.001,10.766,10.767,0,24,0c13.233,0,23.999,10.766,23.999,23.999
		C47.999,37.232,37.233,47.998,24,47.998z M24,2C11.87,2,2.001,11.869,2.001,23.999c0,12.13,9.869,21.999,21.999,21.999
		c12.13,0,21.999-9.869,21.999-21.999C45.999,11.869,36.13,2,24,2z"/>
	<g>
		<path d="M15.828,25.343c-2.559,0-4.563-2.938-4.563-6.69s2.004-6.69,4.563-6.69s4.563,2.938,4.563,6.69
			S18.387,25.343,15.828,25.343z M15.828,13.963c-1.212,0-2.563,1.926-2.563,4.69s1.351,4.69,2.563,4.69s2.563-1.926,2.563-4.69
			S17.041,13.963,15.828,13.963z"/>
		<path d="M32.169,25.343c-2.558,0-4.562-2.938-4.562-6.69c0-3.752,2.004-6.691,4.562-6.691c2.559,0,4.563,2.939,4.563,6.691
			C36.732,22.404,34.728,25.343,32.169,25.343z M32.169,13.962c-1.212,0-2.562,1.926-2.562,4.691c0,2.764,1.35,4.69,2.562,4.69
			c1.213,0,2.563-1.926,2.563-4.69C34.732,15.888,33.382,13.962,32.169,13.962z"/>
	</g>
	<path d="M14.057,38.208l-1.673-1.096c2.588-3.948,6.949-6.306,11.666-6.306c4.638,0,8.959,2.297,11.558,6.144l-1.656,1.119
		c-2.228-3.295-5.929-5.263-9.901-5.263C20.009,32.807,16.273,34.826,14.057,38.208z"/>
	<path d="M18.763,12.714c-1.5-2.876-4.412-3.69-4.441-3.698l0.509-1.935c0.153,0.04,3.784,1.023,5.706,4.708L18.763,12.714z"/>
	<path d="M28.363,12.714L26.59,11.79c1.921-3.684,5.552-4.667,5.706-4.708l0.508,1.935C32.775,9.024,29.863,9.838,28.363,12.714z"/>
</g>
</svg>
