<?xml version="1.0" encoding="utf-8"?>
<!-- Generator: Adobe Illustrator 16.0.0, SVG Export Plug-In . SVG Version: 6.00 Build 0)  -->
<!DOCTYPE svg PUBLIC "-//W3C//DTD SVG 1.1//EN" "http://www.w3.org/Graphics/SVG/1.1/DTD/svg11.dtd">
<svg version="1.1" id="Layer_1" xmlns="http://www.w3.org/2000/svg" xmlns:xlink="http://www.w3.org/1999/xlink" x="0px" y="0px"
	 width="48px" height="48px" viewBox="0 0 48 48" enable-background="new 0 0 48 48" xml:space="preserve">
<g>
	<g>
		<path d="M24,44.624L24,44.624C13.031,44.623,4.108,35.819,4.108,25C4.108,14.18,13.031,5.377,24,5.377
			c10.967,0,19.889,8.803,19.889,19.623S34.967,44.624,24,44.624z M24,7.377C14.134,7.377,6.108,15.283,6.108,25
			c0,9.717,8.026,17.623,17.892,17.624c9.864,0,17.889-7.906,17.889-17.624C41.889,15.283,33.864,7.377,24,7.377z"/>
		<g>
			<path d="M11.262,48c-0.112,0-0.226-0.019-0.337-0.059c-0.52-0.187-0.79-0.759-0.604-1.278l2.123-5.924
				c0.186-0.521,0.757-0.793,1.279-0.604c0.52,0.187,0.791,0.759,0.604,1.278l-2.123,5.924C12.057,47.746,11.672,48,11.262,48z"/>
			<path d="M36.736,48c-0.41,0-0.795-0.254-0.941-0.663l-2.123-5.924c-0.187-0.52,0.084-1.092,0.604-1.278
				c0.518-0.187,1.092,0.083,1.278,0.604l2.123,5.924c0.187,0.52-0.084,1.092-0.604,1.278C36.962,47.981,36.849,48,36.736,48z"/>
		</g>
		<g>
			<path d="M2.818,14.541l-0.664-0.728c-1.499-1.643-2.26-3.764-2.143-5.971c0.117-2.213,1.103-4.248,2.773-5.729
				C4.327,0.75,6.313,0,8.378,0c2.375,0,4.646,1,6.232,2.744l0.682,0.75L2.818,14.541z M8.378,2C6.801,2,5.286,2.572,4.11,3.611
				C2.844,4.733,2.098,6.273,2.009,7.948c-0.071,1.339,0.286,2.636,1.016,3.739l9.363-8.292C11.26,2.5,9.845,2,8.378,2z"/>
			<path d="M45.185,14.542L32.704,3.494l0.683-0.75C34.973,1,37.245,0,39.62,0c2.065,0,4.052,0.75,5.594,2.112
				c1.67,1.479,2.655,3.51,2.774,5.721c0.119,2.209-0.641,4.333-2.14,5.979L45.185,14.542z M35.609,3.395l9.367,8.292
				c0.73-1.106,1.087-2.405,1.015-3.746c-0.091-1.672-0.837-3.21-2.103-4.33C42.714,2.572,41.197,2,39.62,2
				C38.152,2,36.736,2.5,35.609,3.395z"/>
		</g>
	</g>
	<path d="M34.613,26H23V10.939c0-0.552,0.448-1,1-1c0.553,0,1,0.448,1,1V24h9.613c0.553,0,1,0.448,1,1
		C35.613,25.553,35.166,26,34.613,26z"/>
</g>
</svg>
