<?xml version="1.0" encoding="UTF-8"?>
<svg width="1560px" height="157px" viewBox="0 0 1560 157" version="1.1" xmlns="http://www.w3.org/2000/svg" xmlns:xlink="http://www.w3.org/1999/xlink">
    <!-- Generator: Sketch 41.1 (35376) - http://www.bohemiancoding.com/sketch -->
    <title>logo-inline</title>
    <desc>Created with Sketch.</desc>
    <defs></defs>
    <g id="Welcome-v2" stroke="none" stroke-width="1" fill="none" fill-rule="evenodd">
        <g id="logo" transform="translate(-72.000000, -791.000000)" fill="#FFFFFF">
            <g id="logo-inline" transform="translate(72.000000, 791.000000)">
                <polygon id="h" points="423.234231 15 423.234231 66.015852 373.761788 66.015852 373.761788 15 340 15 340 144 373.761788 144 373.761788 92.009247 423.234231 92.009247 423.234231 144 457 144 457 15"></polygon>
                <polygon id="t" points="476 15 476 40.997358 518.268124 40.997358 518.268124 144 551.926295 144 551.926295 40.997358 594 40.997358 594 15"></polygon>
                <polygon id="m" points="717.86024 15 697.636774 80.8692206 690.180366 108.035667 689.786247 108.035667 682.516946 80.675033 662.09841 15 614 15 614 144 644.036625 144 644.036625 84.7807133 643.0573 45.1030383 643.447438 45.1030383 675.450675 144 702.744393 144 734.747631 45.1030383 735.14175 45.1030383 734.154463 84.7807133 734.154463 144 764 144 764 15"></polygon>
                <polygon id="l" points="793 15 793 144 892 144 892 118.006605 826.848678 118.006605 826.848678 15"></polygon>
                <polygon id="e" points="963 15 963 144 1067 144 1067 118.006605 996.939748 118.006605 996.939748 91.6208719 1050.61833 91.6208719 1050.61833 67.1889036 996.939748 67.1889036 996.939748 40.997358 1064.43111 40.997358 1064.43111 15"></polygon>
                <polygon id="m" points="1190.86146 15 1170.63854 80.8692206 1163.17834 108.035667 1162.78822 108.035667 1155.51911 80.675033 1135.10111 15 1087 15 1087 144 1117.03981 144 1117.03981 84.7807133 1116.05653 45.1030383 1116.45064 45.1030383 1148.45303 144 1175.74204 144 1207.74841 45.1030383 1208.13854 45.1030383 1207.15525 84.7807133 1207.15525 144 1237 144 1237 15"></polygon>
                <path d="M1297.42953,15 L1252,144 L1285.87561,144 L1294.88052,114.879789 L1339.53185,114.879789 L1348.33824,144 L1383,144 L1337.76502,15 L1297.42953,15 Z M1311.72304,60.9313078 L1317.01164,40.8031704 L1317.40074,40.8031704 L1323.08241,61.1294584 L1332.48039,92.009247 L1301.93199,92.009247 L1311.72304,60.9313078 Z" id="a"></path>
                <polygon id="i" points="1398 144 1432 144 1432 15 1398 15"></polygon>
                <polygon id="l" points="1461 15 1461 144 1560 144 1560 118.006605 1494.84868 118.006605 1494.84868 15"></polygon>
                <path d="M245.606804,6.30606678e-14 L134,80.4225501 L24.2717199,0.173509425 C8.97399101,22.0603663 0,48.6934642 0,77.4225501 C0,106.854131 9.41822782,134.085966 25.4052226,156.268596 L117,94.4225501 L134,106.42255 L152,94.4225501 L244.524062,156.366625 C260.553995,134.166217 270,106.8975 270,77.4225501 C270,48.6175035 260.978491,21.9195432 245.606804,7.63833441e-14 Z" id="Combined-Shape"></path>
            </g>
        </g>
    </g>
</svg>