<svg width="1560" height="157" viewBox="0 0 1560 157" xmlns="http://www.w3.org/2000/svg"><title>logo-inline</title><g fill="#FFF" fill-rule="evenodd"><path d="M423.234 15v51.016h-49.472V15H340v129h33.762V92.01h49.472V144H457V15M476 15v25.997h42.268V144h33.658V40.997H594V15M717.86 15l-20.223 65.87-7.457 27.166h-.394l-7.27-27.36L662.1 15H614v129h30.037V84.78l-.98-39.677h.39L675.45 144h27.294l32.004-98.897h.394l-.988 39.678V144H764V15M793 15v129h99v-25.993h-65.15V15M963 15v129h104v-25.993h-70.06V91.62h53.678V67.19H996.94V40.996h67.49V15M1190.86 15l-20.22 65.87-7.462 27.166h-.39l-7.27-27.36L1135.102 15H1087v129h30.04V84.78l-.983-39.677h.394L1148.454 144h27.29l32.005-98.897h.39l-.983 39.678V144H1237V15M1297.43 15L1252 144h33.876l9.005-29.12h44.652l8.806 29.12H1383l-45.235-129h-40.335zm14.293 45.93l5.29-20.127h.388l5.682 20.326 9.398 30.88h-30.548l9.79-31.08zM1398 144h34V15h-34M1461 15v129h99v-25.993h-65.15V15M245.607 0L134 80.423 24.272.173C8.974 22.06 0 48.694 0 77.424c0 29.43 9.418 56.663 25.405 78.846L117 94.422l17 12 18-12 92.524 61.944c16.03-22.2 25.476-49.47 25.476-78.944C270 48.618 260.978 21.92 245.607 0z"/></g></svg>